<?xml version="1.0" encoding="UTF-8" standalone="no"?>
<!-- Created with Inkscape (http://www.inkscape.org/) -->

<svg
   width="290"
   height="290"
   viewBox="0 0 76.729167 76.729168"
   version="1.1"
   id="svg1"
   sodipodi:docname="icon.svg"
   inkscape:version="1.3.2 (091e20e, 2023-11-25, custom)"
   xmlns:inkscape="http://www.inkscape.org/namespaces/inkscape"
   xmlns:sodipodi="http://sodipodi.sourceforge.net/DTD/sodipodi-0.dtd"
   xmlns="http://www.w3.org/2000/svg"
   xmlns:svg="http://www.w3.org/2000/svg">
  <sodipodi:namedview
     id="namedview1"
     pagecolor="#505050"
     bordercolor="#eeeeee"
     borderopacity="1"
     inkscape:showpageshadow="0"
     inkscape:pageopacity="0"
     inkscape:pagecheckerboard="0"
     inkscape:deskcolor="#505050"
     inkscape:document-units="mm"
     inkscape:zoom="2"
     inkscape:cx="164.25"
     inkscape:cy="98.75"
     inkscape:window-width="1920"
     inkscape:window-height="1001"
     inkscape:window-x="-9"
     inkscape:window-y="-9"
     inkscape:window-maximized="1"
     inkscape:current-layer="svg1" />
  <defs
     id="defs1" />
  <g
     id="layer1"
     transform="translate(-56.290929,-69.871361)">
    <g
       id="g10"
       transform="matrix(0.26458333,0,0,0.26458333,54.941553,87.968865)">
      <g
         transform="matrix(1.5,0,0,1.5,5.1,5.6)"
         id="g9">
        <g
           id="g2">
          <path
             d="M 193.15,3.05 V 21.5 q 0,1.3 -0.8,2.25 -0.3,0.2 -0.55,0.35 -0.2,0.15 -0.5,0.3 -0.5,0.15 -1.15,0.15 h -64 v 42.7 h 64 q 1,0 1.75,0.55 0.05,0.1 0.25,0.2 0.05,0 0.2,0.15 0.8,0.85 0.8,2.15 v 18.5 q 0,1.3 -0.8,2.2 -0.9,0.85 -2.2,0.85 h -67.9 q -5.7,-0.1 -10.35,-2.8 h 0.1 q -4.8,-2.65 -7.5,-7.45 v 0.05 q -0.3,-0.55 -0.6,-1.05 -1.15,-2.1 -1.65,-4.5 -0.5,-2.4 -0.5,-4.95 v -50.6 q 0,-0.4 0,-0.8 0.05,-2.55 0.7,-4.75 0.7,-2.55 2.05,-4.85 2.7,-4.65 7.4,-7.35 3.75,-2.3 8.2,-2.65 0.25,-0.05 0.5,-0.05 0.8,-0.1 1.65,-0.1 h 67.9 q 0.85,0 1.45,0.35 0.35,0.15 0.75,0.55 0.8,0.8 0.8,2.15 z M 90.1,24.1 q -0.2,0.15 -0.5,0.3 -0.55,0.15 -1.15,0.15 h -64 v 42.7 h 64 q 1,0 1.75,0.55 0.05,0.1 0.25,0.2 0.05,0 0.2,0.15 0.8,0.85 0.8,2.15 v 18.5 q 0,1.3 -0.8,2.2 -0.95,0.85 -2.2,0.85 h -67.9 q -5.7,-0.1 -10.35,-2.8 h 0.1 Q 5.5,86.4 2.8,81.6 v 0.05 Q 2.5,81.1 2.2,80.6 1.05,78.5 0.55,76.1 0,73.7 0,71.15 V 20.55 Q 0,20.15 0,19.75 0.1,17.2 0.75,15 1.45,12.45 2.8,10.15 5.5,5.5 10.2,2.8 13.95,0.5 18.4,0.15 18.65,0.1 18.85,0.1 19.7,0 20.55,0 h 67.9 q 0.85,0 1.45,0.35 0.35,0.15 0.75,0.55 0.8,0.8 0.8,2.15 V 21.5 q 0,1.3 -0.8,2.25 -0.3,0.2 -0.55,0.35 z"
             fill="#1da6f8"
             id="path1" />
        </g>
        <g
           id="g8">
          <g
             id="g7">
            <g
               id="g6">
              <path
                 d="m 191.3,24.4 -1.05,-1.15 0.45,0.55 -34.45,-10.15 13.35,-12.5 0.1,0.05 1.2,-1.2 h 19.25 q 0.85,0 1.45,0.35 0.35,0.15 0.75,0.55 0.8,0.8 0.8,2.15 V 21.5 q 0,1.3 -0.8,2.25 -0.3,0.2 -0.55,0.35 -0.2,0.15 -0.5,0.3 z m -77,19 -11.85,32.7 h -0.2 q -0.5,-2.4 -0.5,-4.95 V 20.55 Z M 126.15,24.55 120.6,0.1 Q 121.4,0 122.25,0 h 20.45 l 13.55,13.65 z M 89.6,24.4 88.55,23.25 89,23.8 54.55,13.65 67.9,1.15 68,1.2 69.2,0 h 19.25 q 0.85,0 1.45,0.35 0.35,0.15 0.75,0.55 0.8,0.8 0.8,2.15 V 21.5 q 0,1.3 -0.8,2.25 -0.3,0.2 -0.55,0.35 -0.2,0.15 -0.5,0.3 z m -77,19 L 0.7,76.1 H 0.55 Q 0,73.7 0,71.15 V 20.55 Z M 54.55,13.65 24.45,24.55 18.85,0.1 Q 19.7,0 20.55,0 H 41 Z"
                 fill="#8ad0fb"
                 id="path2" />
              <path
                 d="M 126.15,24.55 156.25,13.65 142.7,0 h 28.2 l -1.2,1.2 -0.1,-0.05 -13.35,12.5 34.45,10.15 -0.45,-0.55 1.05,1.15 q -0.5,0.15 -1.15,0.15 z m -101.7,0 30.1,-10.9 L 41,0 H 69.2 L 68,1.2 67.9,1.15 54.55,13.65 89,23.8 88.55,23.25 89.6,24.4 q -0.55,0.15 -1.15,0.15 z m 89.85,18.85 11.75,23.85 -23.7,8.9 0.1,-0.05 z m -101.7,0 11.75,23.85 -23.7,8.9 0.05,-0.05 z"
                 fill="#67c2fa"
                 id="path3" />
              <path
                 d="m 122.25,91.85 q -5.7,-0.1 -10.35,-2.8 h 0.1 q -4.8,-2.65 -7.5,-7.45 v 0.05 q -0.3,-0.55 -0.6,-1.05 -1.15,-2.1 -1.65,-4.5 h 0.2 l -0.1,0.05 23.7,-8.9 L 114.3,43.4 126.15,24.55 v 42.7 h 64 q 1,0 1.75,0.55 0.05,0.1 0.25,0.2 0.05,0 0.2,0.15 0.8,0.85 0.8,2.15 v 18.5 q 0,1.3 -0.8,2.2 -0.9,0.85 -2.2,0.85 H 161 L 126.05,67.25 Z M 24.35,67.25 12.6,43.4 24.45,24.55 v 42.7 h 64 q 1,0 1.75,0.55 0.05,0.1 0.25,0.2 0.05,0 0.2,0.15 0.8,0.85 0.8,2.15 v 18.5 q 0,1.3 -0.8,2.2 -0.95,0.85 -2.2,0.85 H 59.3 l -34.95,-24.6 -3.8,24.6 q -5.7,-0.1 -10.35,-2.8 h 0.1 Q 5.5,86.4 2.8,81.6 v 0.05 Q 2.5,81.1 2.2,80.6 1.05,78.5 0.55,76.1 H 0.7 l -0.05,0.05 z"
                 fill="#47b7f8"
                 id="path4" />
              <path
                 d="M 120.6,0.1 126.15,24.55 114.3,43.4 101.75,20.55 q 0,-0.4 0,-0.8 0.05,-2.55 0.7,-4.75 0.7,-2.55 2.05,-4.85 2.7,-4.65 7.4,-7.35 3.75,-2.3 8.2,-2.65 0.25,-0.05 0.5,-0.05 z M 18.85,0.1 24.45,24.55 12.6,43.4 0,20.55 Q 0,20.15 0,19.75 0.1,17.2 0.75,15 1.45,12.45 2.8,10.15 5.5,5.5 10.2,2.8 13.95,0.5 18.4,0.15 18.65,0.1 18.85,0.1 Z"
                 fill="#abdefc"
                 id="path5" />
              <path
                 d="m 161,91.85 h -38.75 l 3.8,-24.6 z m -140.45,0 3.8,-24.6 34.95,24.6 z"
                 fill="#1da6f8"
                 id="path6" />
            </g>
          </g>
        </g>
      </g>
    </g>
  </g>
</svg>
